<?xml version="1.0" encoding="UTF-8"?>
<svg width="42px" height="40px" viewBox="0 0 42 40" version="1.1" xmlns="http://www.w3.org/2000/svg" xmlns:xlink="http://www.w3.org/1999/xlink">
    <!-- Generator: Sketch 46.2 (44496) - http://www.bohemiancoding.com/sketch -->
    <title>Shape</title>
    <desc>Created with Sketch.</desc>
    <defs></defs>
    <g id="Page-1" stroke="none" stroke-width="1" fill="none" fill-rule="evenodd">
        <g id="1_Index" transform="translate(-774.000000, -34.000000)" fill-rule="nonzero" fill="#FFFFFF">
            <g id="Menu" transform="translate(523.000000, 34.000000)">
                <g id="Diamond-icon" transform="translate(251.000000, 0.000000)">
                    <path d="M41.7893819,9.86655738 L34.081431,0.299508197 C33.9288901,0.110081967 33.6987261,0 33.4554474,0 L8.51200481,0 C8.26864416,0 8.03856219,0.110081967 7.88602121,0.299508197 L0.177988421,9.86655738 C-0.0466837106,10.1453279 -0.0598804319,10.5388525 0.14536547,10.8321311 L20.3251196,39.6491803 C20.326595,39.6513115 20.3284802,39.6531148 20.3299556,39.6553279 C20.3469228,39.6790164 20.3647917,39.7018852 20.3842179,39.7235246 C20.3869228,39.7265574 20.3898737,39.7293443 20.3926606,39.7322951 C20.4094638,39.7504918 20.4271687,39.7678689 20.4456114,39.7845082 C20.451595,39.7898361 20.4575786,39.7952459 20.4637261,39.8004098 C20.483972,39.817541 20.5048737,39.8340984 20.5266769,39.8491803 C20.5283163,39.8502459 20.5297097,39.8515574 20.5312671,39.852623 C20.5547097,39.8686066 20.5792999,39.8828689 20.6043819,39.8963934 C20.6109392,39.8998361 20.6174147,39.9031148 20.623972,39.9063934 C20.6452835,39.9171311 20.6670868,39.9268852 20.6893819,39.9356557 C20.6942999,39.937623 20.699054,39.9397541 20.703972,39.9415574 C20.7308573,39.9516393 20.7583983,39.960082 20.786595,39.9672951 C20.7920868,39.9686885 20.7976606,39.9696721 20.8032343,39.9709016 C20.8262671,39.9762295 20.8495458,39.9804098 20.8732343,39.9837705 C20.8808573,39.9848361 20.8884802,39.9859016 20.8961851,39.9868033 C20.9251196,39.989918 20.9542999,39.9921311 20.9838901,39.9921311 C21.0134802,39.9921311 21.0426606,39.99 21.071595,39.9868033 C21.0792999,39.9859836 21.0869228,39.9848361 21.0945458,39.9837705 C21.1182343,39.9804098 21.141513,39.9762295 21.1645458,39.9709016 C21.1701196,39.9695902 21.1756933,39.9686885 21.1811851,39.9672951 C21.2092999,39.9602459 21.2369228,39.9516393 21.2638081,39.9415574 C21.2687261,39.9397541 21.2734802,39.937623 21.2783983,39.9356557 C21.3006933,39.9268852 21.3224147,39.9171311 21.3438081,39.9063934 C21.3503655,39.9030328 21.3569228,39.8998361 21.3633983,39.8963934 C21.3884802,39.8829508 21.4129884,39.8686066 21.436513,39.852623 C21.4381524,39.8515574 21.4395458,39.8502459 21.4411032,39.8491803 C21.4629884,39.8340984 21.4837261,39.8177049 21.504054,39.8004098 C21.5102015,39.7951639 21.5161851,39.789918 21.5221687,39.7845082 C21.5406114,39.7678689 21.5583163,39.7504918 21.5751196,39.7322951 C21.5779065,39.7292623 21.5809392,39.7266393 21.5835622,39.7235246 C21.6028245,39.7018852 21.6207753,39.6790164 21.6378245,39.6553279 C21.6392999,39.6531967 21.6411851,39.6513934 21.6426606,39.6491803 L41.8224147,10.8321311 C42.0272507,10.5389344 42.014054,10.1453279 41.7893819,9.86655738 Z M33.5207753,2.16639344 L39.4833163,9.56704918 L28.6476606,9.56704918 L33.5207753,2.16639344 Z M31.9635622,1.60786885 L27.1625786,8.89868852 L22.459054,1.60786885 L31.9635622,1.60786885 Z M25.6803655,9.56704918 L16.2870868,9.56704918 L20.9837261,2.28704918 L25.6803655,9.56704918 Z M19.5082343,1.60786885 L14.8047097,8.89868852 L10.0038081,1.60786885 L19.5082343,1.60786885 Z M8.44667695,2.16639344 L13.3197917,9.56704918 L2.48413596,9.56704918 L8.44667695,2.16639344 Z M2.34839826,11.174918 L14.1617589,11.174918 L19.3669228,35.477541 L2.34839826,11.174918 Z M20.9837261,35.3494262 L15.8061032,11.174918 L26.1613491,11.174918 L20.9837261,35.3494262 Z M22.6006114,35.477541 L27.8057753,11.174918 L39.618972,11.174918 L22.6006114,35.477541 Z" id="Shape"></path>
                </g>
            </g>
        </g>
    </g>
</svg>